<svg id="Layer_1" data-name="Layer 1" xmlns="http://www.w3.org/2000/svg" viewBox="0 0 512 512"><defs><style>.cls-1{fill:#2b374f;}</style></defs><title>gate-outline</title><path class="cls-1" d="M499.2,96H488.47a44.8,44.8,0,1,0-80.94,0H396.8a12.8,12.8,0,0,0,0,25.6h6.4v25.6h-32V121.6a12.8,12.8,0,1,0-25.6,0v18.1a229.56,229.56,0,0,0-25.6-9V96a12.8,12.8,0,1,0-25.6,0v28.84A231.66,231.66,0,0,0,268.8,122V76.8a12.8,12.8,0,1,0-25.6,0V122a231.66,231.66,0,0,0-25.6,2.87V96A12.8,12.8,0,1,0,192,96v34.66a229.56,229.56,0,0,0-25.6,9V121.6a12.8,12.8,0,1,0-25.6,0v25.6h-32V121.6h6.4a12.8,12.8,0,0,0,0-25.6H104.47a44.8,44.8,0,1,0-80.94,0H12.8a12.8,12.8,0,0,0,0,25.6h6.4V467.2A12.8,12.8,0,0,0,32,480H96a12.8,12.8,0,0,0,12.8-12.8V454.4H403.2v12.8A12.8,12.8,0,0,0,416,480h64a12.8,12.8,0,0,0,12.8-12.8V121.6h6.4a12.8,12.8,0,0,0,0-25.6ZM83.2,454.4H44.8V121.6H83.2ZM64,96A19.2,19.2,0,1,1,83.2,76.8,19.22,19.22,0,0,1,64,96Zm76.8,332.8h-32V409.6h32Zm0-44.8h-32V217.6h32Zm0-192h-32V172.8h32Zm128-44.39a206.09,206.09,0,0,1,25.6,3.23v18.81a231.55,231.55,0,0,0-25.6-2.87Zm25.6,48v54H268.8V192.41A206,206,0,0,1,294.4,195.64Zm0,98.76H217.6V275.2h76.8ZM217.6,150.84a206,206,0,0,1,25.6-3.23v19.16a231.55,231.55,0,0,0-25.6,2.87Zm25.6,41.57v57.2H217.6v-54A206,206,0,0,1,243.2,192.41Zm-76.8-24.63A202.55,202.55,0,0,1,192,157.44v18a229.56,229.56,0,0,0-25.6,9Zm25.6,261H166.4V409.6H192Zm0-44.8H166.4V212.58A202.51,202.51,0,0,1,192,202.24V384Zm51.2,44.8H217.6V409.6h25.6ZM217.6,384V320h25.6v64Zm76.8,44.8H268.8V409.6h25.6ZM268.8,384V320h25.6v64Zm76.8,44.8H320V409.6h25.6Zm0-44.8H320V202.24a202.58,202.58,0,0,1,25.6,10.34Zm0-199.5a229.56,229.56,0,0,0-25.6-9v-18a202.61,202.61,0,0,1,25.6,10.34Zm57.6,244.3h-32V409.6h32Zm0-44.8h-32V217.6h32Zm0-192h-32V172.8h32Zm64,262.4H428.8V121.6h38.4ZM448,96a19.2,19.2,0,1,1,19.2-19.2A19.22,19.22,0,0,1,448,96Z"/></svg>